#!OML:ASF H:\Dans Jumps\Project 1\Capture day 1\Session 1\subject.ASF
:FULLY-SPECIFIED
:DEGREES
260
root 0.491365 14.0454 -16.4816 25.727 -0.878948 -1.97327
lowerback 24.0238 0.5718 -1.32626
upperback 7.97766 0.592409 2.58008
thorax -4.62935 0.244466 3.39642
lowerneck -19.0898 0.7072 -1.33353
upperneck 8.07697 1.53872 -1.97704
head 5.52285 0.549247 -0.261472
rclavicle 2.98177e-015 1.11319e-014
rhumerus -38.6954 -9.75552 -75.1455
rradius 25.0866
rwrist 26.6596
rhand -18.4489 -24.5712
rfingers 7.12502
rthumb 7.83713 -54.4059
lclavicle 2.98177e-015 1.11319e-014
lhumerus -39.5293 -4.55008 88.7512
lradius 18.6941
lwrist 16.2385
lhand -29.5348 -5.69445
lfingers 7.12502
lthumb -2.86815 24.266
rfemur -79.7012 -2.25967 22.5905
rtibia 82.6585
rfoot -29.6873 -11.4941
rtoes 3.06935
lfemur -79.7839 8.78217 -23.4553
ltibia 82.2136
lfoot -27.0324 13.913
ltoes -7.80086
261
root 0.488837 14.0074 -16.4714 26.0083 -0.861585 -1.93014
lowerback 24.2792 0.588808 -1.3879
upperback 7.81666 0.602379 2.57892
thorax -4.93367 0.254891 3.43068
lowerneck -19.2577 0.691633 -1.33732
upperneck 8.04155 1.51957 -1.96119
head 5.53777 0.540453 -0.257402
rclavicle -1.78906e-015 -2.99171e-014
rhumerus -39.0745 -9.9437 -74.8973
rradius 24.9745
rwrist 26.7908
rhand -18.4315 -24.5572
rfingers 7.12502
rthumb 7.85384 -54.3914
lclavicle -1.78906e-015 -2.99171e-014
lhumerus -39.9834 -4.38706 88.6308
lradius 18.5687
lwrist 16.0657
lhand -29.7056 -5.85228
lfingers 7.12502
lthumb -3.03314 24.1059
rfemur -80.2449 -2.19475 22.5397
rtibia 83.1384
rfoot -30.0065 -11.8335
rtoes 2.96933
lfemur -80.2999 8.66664 -23.4872
ltibia 82.6594
lfoot -27.1025 14.4315
ltoes -7.35615
262
root 0.485913 13.9687 -16.46 26.2884 -0.846956 -1.87708
lowerback 24.5487 0.608792 -1.4602
upperback 7.64511 0.613082 2.57429
thorax -5.25697 0.266337 3.46738
lowerneck -19.4328 0.67546 -1.33305
upperneck 8.02009 1.49871 -1.95052
head 5.55833 0.530446 -0.256427
rclavicle 1.39149e-015 -1.82882e-014
rhumerus -39.4533 -10.142 -74.6429
rradius 24.8523
rwrist 26.9481
rhand -18.3759 -24.5685
rfingers 7.12502
rthumb 7.90751 -54.4006
lclavicle 1.39149e-015 -1.82882e-014
lhumerus -40.429 -4.21948 88.502
lradius 18.4365
lwrist 15.8992
lhand -29.8939 -5.99843
lfingers 7.12502
lthumb -3.21501 23.9571
rfemur -80.7847 -2.13126 22.4699
rtibia 83.6265
rfoot -30.3297 -12.1016
rtoes 2.93259
lfemur -80.8123 8.55608 -23.5326
ltibia 83.1097
lfoot -27.2075 14.8697
ltoes -6.96234
263
root 0.4826 13.9291 -16.4473 26.5624 -0.835219 -1.81338
lowerback 24.8304 0.632423 -1.54388
upperback 7.46558 0.62498 2.56654
thorax -5.59566 0.279029 3.50717
lowerneck -19.6196 0.657372 -1.32122
upperneck 8.01918 1.47453 -1.94354
head 5.58732 0.518418 -0.258145
rclavicle 5.1684e-015 6.85807e-015
rhumerus -39.8283 -10.3446 -74.3849
rradius 24.7198
rwrist 27.1143
rhand -18.2841 -24.6003
rfingers 7.12502
rthumb 7.99619 -54.4291
lclavicle 5.1684e-015 6.85807e-015
lhumerus -40.8576 -4.04481 88.3643
lradius 18.2898
lwrist 15.7315
lhand -30.0634 -6.11599
lfingers 7.12502
lthumb -3.37873 23.837
rfemur -81.3142 -2.06989 22.3819
rtibia 84.122
rfoot -30.6488 -12.3225
rtoes 2.92227
lfemur -81.3163 8.45049 -23.5928
ltibia 83.5629
lfoot -27.3277 15.2515
ltoes -6.66666
264
root 0.478906 13.8889 -16.4328 26.8283 -0.821164 -1.74005
lowerback 25.1195 0.657995 -1.63488
upperback 7.28025 0.636791 2.55706
thorax -5.94494 0.29234 3.54955
lowerneck -19.8272 0.635836 -1.30841
upperneck 8.04627 1.4459 -1.93209
head 5.62845 0.504114 -0.259006
rclavicle 3.97569e-016 -4.07509e-015
rhumerus -40.1917 -10.5619 -74.1192
rradius 24.5694
rwrist 27.2966
rhand -18.177 -24.632
rfingers 7.12502
rthumb 8.0995 -54.4568
lclavicle 3.97569e-016 -4.07509e-015
lhumerus -41.2566 -3.86307 88.2168
lradius 18.1172
lwrist 15.5492
lhand -30.1662 -6.19991
lfingers 7.12502
lthumb -3.478 23.7515
rfemur -81.8275 -2.01549 22.2804
rtibia 84.6232
rfoot -30.9631 -12.5012
rtoes 2.94947
lfemur -81.8067 8.34535 -23.6626
ltibia 84.0175
lfoot -27.4518 15.5878
ltoes -6.45311
265
root 0.474828 13.8483 -16.4164 27.0858 -0.803325 -1.65901
lowerback 25.4119 0.684314 -1.73156
upperback 7.0888 0.647428 2.54762
thorax -6.30311 0.305789 3.5958
lowerneck -20.0577 0.610713 -1.29973
upperneck 8.10169 1.41363 -1.91341
head 5.68208 0.487986 -0.257246
rclavicle -9.93923e-016 7.95139e-016
rhumerus -40.5388 -10.7914 -73.8446
rradius 24.397
rwrist 27.4932
rhand -18.0618 -24.6607
rfingers 7.12502
rthumb 8.21067 -54.4812
lclavicle -9.93923e-016 7.95139e-016
lhumerus -41.6165 -3.66318 88.0556
lradius 17.9078
lwrist 15.3267
lhand -30.1528 -6.19344
lfingers 7.12502
lthumb -3.46502 23.7581
rfemur -82.3245 -1.96763 22.1695
rtibia 85.1278
rfoot -31.2642 -12.6465
rtoes 3.0201
lfemur -82.2819 8.2391 -23.7371
ltibia 84.4726
lfoot -27.5709 15.8919
ltoes -6.31251
266
root 0.470322 13.8076 -16.3978 27.335 -0.781942 -1.57503
lowerback 25.7003 0.712349 -1.82836
upperback 6.89322 0.659438 2.53848
thorax -6.66466 0.320494 3.6422
lowerneck -20.3086 0.578784 -1.30779
upperneck 8.17816 1.37474 -1.87424
head 5.74534 0.469404 -0.246946
rclavicle 1.39149e-014 -1.25234e-014
rhumerus -40.8603 -11.0373 -73.5637
rradius 24.1978
rwrist 27.7022
rhand -17.9602 -24.6863
rfingers 7.12502
rthumb 8.30876 -54.5029
lclavicle 1.39149e-014 -1.25234e-014
lhumerus -41.9179 -3.43425 87.8688
lradius 17.6419
lwrist 15.0229
lhand -30.014 -6.11699
lfingers 7.12502
lthumb -3.33093 23.8367
rfemur -82.8041 -1.9215 22.0553
rtibia 85.6313
rfoot -31.5402 -12.7792
rtoes 3.11801
lfemur -82.7403 8.13465 -23.8118
ltibia 84.9279
lfoot -27.6861 16.1683
ltoes -6.22464
267
root 0.465376 13.7668 -16.3768 27.5806 -0.760348 -1.49012
lowerback 25.9736 0.742978 -1.92331
upperback 6.69368 0.674341 2.5277
thorax -7.02406 0.33707 3.68482
lowerneck -20.5744 0.541259 -1.33068
upperneck 8.26329 1.33027 -1.81649
head 5.81345 0.449033 -0.228948
rclavicle 5.76476e-015 -2.68359e-015
rhumerus -41.1484 -11.3023 -73.2834
rradius 23.9668
rwrist 27.9231
rhand -17.8943 -24.7018
rfingers 7.12502
rthumb 8.37236 -54.5159
lclavicle 5.76476e-015 -2.68359e-015
lhumerus -42.1466 -3.17759 87.6506
lradius 17.3122
lwrist 14.6163
lhand -29.7295 -5.96167
lfingers 7.12502
lthumb -3.05618 23.9962
rfemur -83.2717 -1.87161 21.9395
rtibia 86.1303
rfoot -31.7773 -12.925
rtoes 3.21317
lfemur -83.1848 8.03471 -23.8864
ltibia 85.3831
lfoot -27.8022 16.4207
ltoes -6.16575
268
root 0.459903 13.7264 -16.3532 27.8217 -0.736175 -1.41228
lowerback 26.2281 0.774894 -2.00955
upperback 6.49191 0.692575 2.51828
thorax -7.37756 0.355511 3.72277
lowerneck -20.8487 0.498121 -1.37602
upperneck 8.34336 1.28147 -1.73701
head 5.88095 0.427758 -0.200907
rclavicle -4.57205e-015 -1.12313e-014
rhumerus -41.3899 -11.5901 -73.0038
rradius 23.6981
rwrist 28.1573
rhand -17.8748 -24.698
rfingers 7.12502
rthumb 8.39112 -54.5113
lclavicle -4.57205e-015 -1.12313e-014
lhumerus -42.285 -2.87359 87.3887
lradius 16.9085
lwrist 14.069
lhand -29.3445 -5.76992
lfingers 7.12502
lthumb -2.68439 24.1929
rfemur -83.7217 -1.8131 21.8325
rtibia 86.6198
rfoot -31.9732 -13.1023
rtoes 3.31222
lfemur -83.6123 7.94188 -23.951
ltibia 85.837
lfoot -27.9212 16.6525
ltoes -6.11904
